<?xml version="1.0" encoding="UTF-8"?>
<svg id="Layer_1" xmlns="http://www.w3.org/2000/svg" version="1.1" viewBox="0 0 500 500">
  <!-- Generator: Adobe Illustrator 29.1.0, SVG Export Plug-In . SVG Version: 2.1.0 Build 142)  -->
  <defs>
    <style>
      .st0 {
        fill: #e0e0e0;
      }

      .st1 {
        fill: #ffbe9d;
      }

      .st2 {
        fill: #ebebeb;
      }

      .st3 {
        fill: #263238;
      }

      .st4 {
        fill: #8f736f;
      }

      .st5 {
        fill: #eb996e;
      }

      .st6 {
        fill: #56413c;
      }

      .st7 {
        fill: #fff;
      }

      .st8 {
        fill: #fafafa;
      }

      .st9 {
        opacity: .3;
      }

      .st10 {
        fill: #753918;
      }

      .st11 {
        fill: #455a64;
      }
    </style>
  </defs>
  <g id="freepik--Table--inject-111">
    <path class="st3" d="M463.4,465.7c0,.1-98.2.3-219.4.3s-219.4-.1-219.4-.3,98.2-.3,219.4-.3,219.4.1,219.4.3Z"/>
  </g>
  <g id="freepik--speech-bubble--inject-111">
    <path class="st8" d="M297.4,261h-77.7l-14.9,22-14.5-22h-76.4c-4.9,0-8.8-4-8.8-8.8V100.8c0-4.9,3.9-8.8,8.8-8.8,0,0,0,0,0,0h183.4c4.9,0,8.8,4,8.8,8.8h0v151.5c0,4.9-4,8.8-8.8,8.8Z"/>
    <path class="st3" d="M297.4,261h.5c.5,0,1-.1,1.4-.2,3.3-.7,5.8-3.3,6.6-6.5,0-.4.2-.8.2-1.1,0-.4,0-.8,0-1.2v-15.2c0-19,0-46.4,0-80.2v-55.4c0-3.8-2.4-7.3-6-8.4-1.2-.4-2.5-.5-3.7-.4H113.1c-.4,0-.8.1-1.2.2-3.1.8-5.5,3.2-6.3,6.3-.3,1.4-.3,2.9-.2,4.3v147.2c0,1.2,0,2.5.2,3.7.5,2.4,1.9,4.5,4,5.7,1,.6,2.2,1,3.3,1.1,1.2.1,2.4,0,3.6,0h74c0,0,14.5,22.1,14.5,22.1h-.3l14.9-22h0c0,0,0,0,0,0l57.4.3h20.4-77.7c0,0,.1,0,.1,0-4.6,6.9-9.5,14.2-14.8,22v.2c-.1,0-.3-.2-.3-.2l-14.5-22h.2c0,0-52.4,0-52.4,0h-21.4c-1.2,0-2.4,0-3.7,0-3.9-.4-7-3.3-7.8-7.1-.2-1.2-.2-2.5-.2-3.8V100.8c0-4.2,2.8-7.9,6.9-8.9.4,0,.8-.2,1.2-.2h183.3c1.3,0,2.6,0,3.9.4,1.2.4,2.4,1.1,3.3,2,1,.9,1.7,1.9,2.2,3.1.5,1.2.7,2.5.7,3.8v55.4c0,33.9,0,61.3,0,80.2v15.2c0,.4,0,.8,0,1.2,0,.4-.1.8-.2,1.2-.8,3.3-3.4,5.8-6.7,6.6-.5,0-.9.2-1.4.2h-.6Z"/>
    <path class="st3" d="M183.2,185c0,2-1.5,3.2-3.8,3.2h-1.8v2.4h-2v-8.8h3.8c2.3,0,3.8,1.3,3.8,3.2ZM181.2,185c0-1-.6-1.5-1.9-1.5h-1.7v3.1h1.7c1.2,0,1.9-.5,1.9-1.5Z"/>
    <path class="st3" d="M190.5,186.8v3.9h-1.8v-.8c-.5.7-1.3,1-2.1.9-1.6,0-2.5-.9-2.5-2.1s.9-2,2.9-2h1.6c0-.8-.5-1.3-1.6-1.3-.7,0-1.4.2-2,.6l-.7-1.4c.9-.6,1.9-.8,2.9-.8,2.1,0,3.3.9,3.3,3ZM188.5,188.5v-.7h-1.4c-.9,0-1.2.3-1.2.8s.4.8,1.1.8c.6,0,1.3-.3,1.5-.9h0Z"/>
    <path class="st3" d="M191.6,190l.6-1.4c.7.4,1.5.6,2.4.6.9,0,1.2-.2,1.2-.6,0-1.1-4.1,0-4.1-2.7s1.2-2.2,3.1-2.2c.9,0,1.8.2,2.6.6l-.6,1.4c-.6-.3-1.3-.5-2-.5-.9,0-1.3.3-1.3.6,0,1.2,4.1,0,4.1,2.7s-1.2,2.1-3.2,2.1c-1,0-2-.2-2.9-.7Z"/>
    <path class="st3" d="M198.3,190l.6-1.4c.7.4,1.5.6,2.4.6.9,0,1.2-.2,1.2-.6,0-1.1-4.1,0-4.1-2.7s1.2-2.2,3.1-2.2c.9,0,1.8.2,2.6.6l-.7,1.4c-.6-.3-1.3-.5-1.9-.5-.9,0-1.2.3-1.2.6,0,1.2,4.1,0,4.1,2.7s-1.2,2.1-3.2,2.1c-1,0-2-.2-2.9-.7Z"/>
    <path class="st3" d="M216.3,183.9l-2.4,6.8h-1.9l-1.5-4.2-1.6,4.2h-1.9l-2.4-6.8h1.9l1.6,4.6,1.7-4.6h1.7l1.6,4.6,1.6-4.6h1.7Z"/>
    <path class="st3" d="M216.6,187.3c-.1-2.1,1.4-3.8,3.5-4,2.1-.1,3.8,1.4,4,3.5.1,2.1-1.4,3.8-3.5,4,0,0-.2,0-.2,0-1.9.1-3.6-1.3-3.7-3.2,0,0,0-.2,0-.2ZM222,187.3c0-1-.9-1.7-1.9-1.6-1,0-1.7.9-1.6,1.9,0,.9.8,1.6,1.7,1.6.9,0,1.7-.8,1.7-1.7,0,0,0,0,0-.1h0Z"/>
    <path class="st3" d="M229.5,183.8v1.8h-.4c-.9,0-1.7.6-1.8,1.5,0,.1,0,.3,0,.4v3.2h-2v-6.8h1.9v.9c.6-.7,1.5-1.1,2.4-1Z"/>
    <path class="st3" d="M237.5,181.3v9.3h-1.9v-.8c-.5.6-1.3.9-2.1.9-1.9,0-3.5-1.6-3.5-3.5s1.6-3.5,3.5-3.5c.8,0,1.5.3,2,.8v-3.3h2ZM235.6,187.3c0-1-.9-1.7-1.9-1.6-1,0-1.7.9-1.6,1.9,0,.9.8,1.6,1.7,1.6.9,0,1.7-.7,1.7-1.7,0,0,0-.1,0-.2h0Z"/>
    <rect class="st2" x="138.1" y="205.8" width="23.7" height="32.8" rx="5.5" ry="5.5"/>
    <rect class="st2" x="194.7" y="205.8" width="23.1" height="32.8" rx="5.5" ry="5.5"/>
    <rect class="st2" x="167" y="205.8" width="23.1" height="32.8" rx="5.5" ry="5.5"/>
    <rect class="st2" x="222.3" y="205.8" width="23.7" height="32.8" rx="5.5" ry="5.5"/>
    <rect class="st2" x="249.5" y="205.8" width="23.7" height="32.8" rx="5.5" ry="5.5"/>
    <path class="st10" d="M153,221.4l2.5,1.4-1.1,1.9-2.6-1.5v2.8h-2.2v-2.8l-2.6,1.5-1.1-1.9,2.5-1.4-2.5-1.4,1.1-1.9,2.6,1.5v-2.8h2.2v2.8l2.6-1.5,1.1,1.9-2.5,1.4Z"/>
    <path class="st10" d="M180.7,221.2l2.5,1.4-1.1,1.9-2.6-1.5v2.8c0,0-2.1,0-2.1,0v-2.8l-2.6,1.5-1.1-1.9,2.5-1.4-2.5-1.4,1.1-1.9,2.6,1.5v-2.8h2.2v2.8c0,0,2.5-1.5,2.5-1.5l1.1,1.9-2.5,1.4Z"/>
    <path class="st10" d="M209,221.2l2.5,1.4-1.1,1.9-2.6-1.5v2.8c0,0-2.1,0-2.1,0v-2.8l-2.6,1.5-1.1-1.9,2.5-1.4-2.5-1.4,1.1-1.9,2.6,1.5v-2.8h2.2v2.8c0,0,2.5-1.5,2.5-1.5l1.1,1.9-2.5,1.4Z"/>
    <path class="st10" d="M236.4,221.2l2.5,1.4-1.1,1.9-2.6-1.5v2.8c0,0-2.1,0-2.1,0v-2.8l-2.6,1.5-1.1-1.9,2.5-1.4-2.5-1.4,1.1-1.9,2.6,1.5v-2.8h2.2v2.8c0,0,2.5-1.5,2.5-1.5l1.1,1.9-2.5,1.4Z"/>
    <path class="st3" d="M156.1,238.8h-12.3c-3.2,0-5.7-2.6-5.7-5.7v-21.8c0-3.2,2.6-5.7,5.7-5.7h12.3c3.2,0,5.7,2.6,5.7,5.7h0v21.8c0,3.2-2.6,5.7-5.7,5.7ZM143.9,206c-2.9,0-5.3,2.4-5.3,5.3v21.8c0,2.9,2.4,5.3,5.3,5.3h12.3c2.9,0,5.3-2.4,5.3-5.3v-21.7c0-2.9-2.4-5.3-5.3-5.3h-12.3Z"/>
    <path class="st3" d="M184.6,238.8h-12.3c-3.2,0-5.7-2.6-5.7-5.7v-21.8c0-3.2,2.6-5.7,5.7-5.7h12.3c3.2,0,5.7,2.6,5.7,5.7v21.8c0,3.2-2.6,5.7-5.7,5.7ZM172.3,206c-2.9,0-5.3,2.4-5.3,5.3v21.8c0,2.9,2.4,5.3,5.3,5.3h12.3c2.9,0,5.3-2.4,5.3-5.3v-21.7c0-2.9-2.4-5.3-5.3-5.3h-12.3Z"/>
    <path class="st3" d="M212.3,238.8h-12.3c-3.2,0-5.7-2.6-5.7-5.7v-21.8c0-3.2,2.6-5.7,5.7-5.7h12.3c3.2,0,5.7,2.6,5.7,5.7v21.8c0,3.2-2.5,5.7-5.7,5.7ZM200,206c-2.9,0-5.3,2.4-5.3,5.3v21.8c0,2.9,2.4,5.3,5.3,5.3h12.3c2.9,0,5.3-2.4,5.3-5.3v-21.7c0-2.9-2.4-5.3-5.3-5.3h-12.3Z"/>
    <path class="st3" d="M240.3,238.8h-12.3c-3.2,0-5.7-2.6-5.7-5.7v-21.8c0-3.2,2.6-5.7,5.7-5.7h12.3c3.2,0,5.7,2.6,5.7,5.7v21.8c0,3.1-2.6,5.7-5.7,5.7ZM228,206c-2.9,0-5.3,2.4-5.3,5.3v21.8c0,2.9,2.4,5.3,5.3,5.3h12.3c2.9,0,5.3-2.4,5.3-5.3v-21.7c0-2.9-2.4-5.3-5.3-5.3h-12.3Z"/>
    <path class="st3" d="M267.5,238.8h-12.3c-3.2,0-5.7-2.6-5.7-5.7v-21.8c0-3.2,2.6-5.7,5.7-5.7h12.3c3.2,0,5.7,2.6,5.7,5.7v21.8c0,3.2-2.6,5.7-5.7,5.7ZM255.2,206c-2.9,0-5.3,2.4-5.3,5.3v21.8c0,2.9,2.4,5.3,5.3,5.3h12.3c2.9,0,5.3-2.4,5.3-5.3v-21.7c0-2.9-2.4-5.3-5.3-5.3h-12.3Z"/>
    <path class="st10" d="M267.9,230.1c-2.2.3-4.4.4-6.6.3-2.2,0-4.4,0-6.6-.3,2.2-.3,4.4-.3,6.6-.3,2.2,0,4.4,0,6.6.3Z"/>
    <circle class="st10" cx="206.7" cy="145.4" r="26.5"/>
    <path class="st7" d="M202.1,140.5h-.4v-2.5c-.1-2.9,2.1-5.3,4.9-5.4s5.3,2.1,5.4,4.9c0,.2,0,.3,0,.5v2h-.4v-2c.1-2.6-1.9-4.8-4.5-4.9s-4.8,1.9-4.9,4.5c0,.1,0,.3,0,.4v2.5Z"/>
    <path class="st7" d="M213.3,157.8h-13.1c-1.2,0-2.2-1-2.2-2.2,0,0,0,0,0,0v-13.1c0-1.2,1-2.2,2.2-2.2h13.1c1.2,0,2.2,1,2.2,2.2v13.1c0,1.2-1,2.2-2.2,2.2ZM200.2,140.8c-1,0-1.7.8-1.7,1.7h0v13.1c0,1,.8,1.7,1.7,1.7h13.1c1,0,1.7-.8,1.7-1.7h0v-13.1c0-1-.8-1.7-1.7-1.7h-13.1Z"/>
    <path class="st7" d="M206.8,149.5c-1.1,0-2.1-.9-2.1-2.1s.9-2.1,2.1-2.1,2.1.9,2.1,2.1c0,0,0,0,0,0,0,1.1-.9,2.1-2.1,2.1ZM206.8,145.8c-.9,0-1.6.7-1.6,1.6,0,.9.7,1.6,1.6,1.6.9,0,1.6-.7,1.6-1.6h0c0-.9-.7-1.6-1.6-1.6,0,0,0,0,0,0h0Z"/>
    <rect class="st7" x="206.5" y="149.2" width=".4" height="3.7"/>
    <circle class="st0" cx="288.4" cy="106.9" r="8.2" transform="translate(122 365.6) rotate(-77.6)"/>
    <path class="st7" d="M285.8,109.8c0,0-.1,0-.2,0,0,0-.1-.2,0-.3,0,0,0,0,0,0l5.3-5.3c0,0,.2-.1.3,0,0,0,0,0,0,0,0,0,.1.3,0,.4,0,0,0,0,0,0l-5.3,5.3s-.1,0-.2,0Z"/>
    <path class="st7" d="M291.1,109.8c0,0-.1,0-.2,0l-5.3-5.3c0,0-.1-.3,0-.4,0,0,0,0,0,0,0,0,.2-.1.3,0,0,0,0,0,0,0l5.3,5.3c0,0,.1.2,0,.3,0,0,0,0,0,0,0,0-.1,0-.2,0Z"/>
  </g>
  <g id="freepik--Plant--inject-111">
    <path class="st11" d="M78.1,415.5s-26.4-30.4-36.4-60.8-5.2-26.9-5.2-26.9c0,0,13.5,29.5,23.7,43.8s28.4,35.2,28.4,35.2l-10.5,8.7Z"/>
    <path class="st11" d="M83.3,332.5c-.4-.7-1.4-1-2.1-.6-.6.3-.9.9-.8,1.6,1.6,10.7,5.1,35.8,5,52-.2,21.1,0,29.3,0,29.3h11s-2-43.7-4.4-57c-1.8-9.3-5.5-19.7-8.7-25.3Z"/>
    <path class="st11" d="M89.3,411.3c4.6-10.4,7.7-21.5,9.1-32.8.9-7.8-.7-18.3-3.1-32.3-.9-5.1-1.4-10.3-1.4-15.5,0-1.4,1.2-2.6,2.6-2.6.9,0,1.8.5,2.3,1.4,1.3,2.4,5.2,10.5,6.2,15.5,2.7,13.8,5.7,20.8,3.4,33.9s-10.8,33.4-10.8,33.4l-8.2-.9Z"/>
    <path class="st11" d="M99.2,412.1s29-62.3,31-71.6,8.9-30.6,9.6-29.4,2,12.5-3.2,25.3-27.6,77.5-27.6,77.5h-9.9"/>
    <path class="st3" d="M86.1,409.4c-.3-.2-.6-.3-.8-.6-.5-.4-1.3-.9-2.2-1.7-1.9-1.5-4.6-3.8-7.8-6.9-8.1-8-15.2-17.1-21-27-5.8-9.9-10.6-20.3-14.4-31.1-1.5-4.1-2.5-7.5-3.2-9.9-.4-1.2-.6-2.1-.8-2.7-.1-.3-.2-.7-.2-1,.1.3.3.6.3.9.2.7.5,1.6.9,2.7.8,2.3,1.9,5.7,3.4,9.8,3.9,10.7,8.7,21.1,14.5,31,5.8,9.8,12.8,18.9,20.8,27,3.1,3.1,5.8,5.4,7.6,7,.9.8,1.7,1.4,2.2,1.8.3.2.5.4.7.7Z"/>
    <path class="st3" d="M89.3,379.5c-.2-.6-.2-1.2-.3-1.8-.1-1.3-.3-3-.5-5-.5-4.2-1.2-10-2.2-16.4s-2.2-12.1-3.1-16.3c-.4-2-.8-3.6-1.1-4.9-.2-.6-.3-1.2-.3-1.8.2.6.4,1.2.6,1.8.3,1.1.8,2.8,1.2,4.9,1,4.1,2.2,9.9,3.2,16.3s1.7,12.2,2,16.5c.2,2.1.3,3.8.3,5,0,.6,0,1.2,0,1.9Z"/>
    <path class="st3" d="M96.1,328.9c.1.2.3.5.3.8l.9,2.3c.4,1,.8,2.2,1.2,3.7s1,3.1,1.4,5l.7,2.9c.2,1,.4,2.1.6,3.2.5,2.2.8,4.6,1.1,7.1.6,5.5.9,11,.7,16.5-.2,5.5-.9,11-1.9,16.4-.5,2.5-1,4.9-1.6,7-.3,1.1-.6,2.2-.9,3.2l-.9,2.9c-.6,1.8-1.2,3.5-1.8,4.9s-1,2.6-1.5,3.6l-1,2.2c-.1.3-.2.5-.4.8,0-.3.2-.5.3-.8.2-.6.6-1.3.9-2.3s.9-2.2,1.4-3.6,1.2-3,1.7-4.9c.3-.9.6-1.9.9-2.9s.5-2.1.8-3.1c.6-2.2,1-4.5,1.6-7,1-5.4,1.6-10.9,1.8-16.4.2-5.5,0-11-.6-16.4-.3-2.5-.6-4.9-1.1-7.1-.2-1.1-.4-2.2-.6-3.2s-.5-2-.7-2.9c-.4-1.9-.9-3.5-1.3-5s-.8-2.7-1.2-3.7l-.8-2.4c-.1-.3-.2-.6-.3-.9Z"/>
    <path class="st3" d="M139.6,312.5c0,0,0,.2,0,.3,0,.2,0,.5-.1.8-.1.7-.3,1.8-.6,3.1-.6,2.7-1.5,6.5-3,11.2s-3.4,10.2-5.8,16.2-5.1,12.6-7.6,19.6-4.6,13.8-6.5,20-3.7,11.8-5.4,16.3c-1.3,3.6-2.8,7.2-4.5,10.7-.6,1.2-1.1,2.1-1.5,2.8l-.4.7c0,.2-.1.2-.2.2,0,0,0-.2,0-.3l.3-.7c.3-.6.8-1.6,1.4-2.8,1.2-2.5,2.7-6.1,4.4-10.7s3.4-10.1,5.2-16.4,3.9-13,6.5-20,5.3-13.6,7.7-19.6,4.4-11.5,5.9-16.1,2.5-8.5,3.1-11.1c.3-1.3.5-2.4.7-3.1,0-.3.1-.6.2-.8,0-.1,0-.2,0-.3Z"/>
    <path class="st11" d="M50.1,298.7c-1-1-2.6-.9-3.5,0-.6.7-.9,1.6-.6,2.5,1,3.2,2.2,6.3,3.6,9.4,4,8.5,15.7,38.9,21.2,55.6s13.2,47.9,13.2,47.9l11.7-1.9s-10.7-51.1-21.1-69.6c-8.4-14.8-16.8-36.2-24.5-43.8Z"/>
    <path class="st3" d="M74,376.6c.3.4.5.9.6,1.4.3.9.8,2.3,1.3,3.9,1.1,3.3,2.4,8,3.7,13.2s2.4,9.9,3.2,13.3c.3,1.6.6,3,.9,4,.1.5.2,1,.2,1.5-.2-.5-.4-1-.5-1.5-.3-1.1-.6-2.4-1.1-4-.9-3.5-2.1-8.1-3.4-13.3s-2.6-9.9-3.5-13.2c-.5-1.6-.8-2.9-1.2-4-.2-.5-.3-1-.4-1.5Z"/>
    <path class="st3" d="M89.9,413.1c0-.1,0-.2,0-.3,0-.2,0-.5-.1-.9-.1-.8-.2-2-.5-3.5-.4-3.1-1.2-7.5-2.4-12.9-1.5-6.3-3.3-12.6-5.5-18.7-2.4-6.9-5.4-14.4-8.8-22.2-6.9-15.5-13.8-29.2-18.3-39.4-2.3-5.1-4-9.2-5.2-12.1-.6-1.4-1-2.6-1.3-3.3-.1-.4-.2-.6-.3-.9,0,0,0-.2,0-.3,0,0,.1.2.2.3l.4.9c.3.8.8,1.9,1.4,3.3,1.2,2.9,3.1,7,5.4,12,4.6,10.1,11.6,23.8,18.5,39.3,3.4,7.8,6.4,15.3,8.8,22.3,2.1,6.2,3.9,12.4,5.4,18.8,1,4.3,1.7,8.6,2.3,13,.2,1.5.3,2.8.4,3.6v.9c0,0,0,.2,0,.3Z"/>
    <path class="st3" d="M95.8,412.1c-.2-.7-.3-1.3-.4-2-.2-1.4-.5-3.2-.9-5.4-.8-4.5-2-10.8-3.8-17.6s-3.7-12.8-5.2-17.2c-.7-2.1-1.4-3.8-1.8-5.1-.3-.6-.5-1.3-.6-1.9.3.6.6,1.2.8,1.8.5,1.2,1.2,2.9,2,5.1,2.1,5.6,3.9,11.4,5.4,17.2,1.5,5.8,2.7,11.7,3.7,17.7.3,2.3.6,4.1.7,5.4.1.7.2,1.3.2,2Z"/>
    <rect class="st10" x="74.1" y="410.5" width="45.7" height="55.7"/>
    <g class="st9">
      <rect x="74.1" y="410.5" width="45.7" height="55.7"/>
    </g>
    <rect class="st10" x="64.7" y="410.5" width="40.5" height="55.7"/>
  </g>
  <g id="freepik--Character--inject-111">
    <polygon class="st4" points="386.9 286.6 362.9 283.1 314.8 290.2 301.3 295 303.7 324.5 349.9 333 381.1 323.7 392.9 306.4 386.9 286.6"/>
    <path class="st10" d="M402.1,289.4l-20.1-4.7s-14.2,44-49.3,42.1c-28.6-1.5-28.9-33.5-28.9-33.5l-20.6,6.6s-7.9,52.9.8,90.3c2,8.8,4.8,20.5,4.8,20.5l-2.8,54.7,152.4.2-36.3-176.3h0Z"/>
    <g class="st9">
      <path d="M342.3,454.8c7.4-.2,14.3.4,21.7.3,8.9-.2,17.9-.4,26.7,1,6.6,1.1,13,3.1,19.6,4.1,9,1.4,18.6.9,26.6-3.4l-1.3-7.5-30.4-7.3-62.8,12.8Z"/>
    </g>
    <path class="st10" d="M265.9,312.2c7-9,18.6-12.8,18.6-12.8l7.8,67.9-14.8,98.9-48.4-.2s26.7-140.7,36.8-153.8Z"/>
    <path class="st10" d="M399.7,288.9s32.6,2.6,44.2,56c5.3,24.1,12,52.4,13.9,71.4,1.4,13.8-6.1,35.4-19.8,37.1l-17.3,2.3c-3.4.5-6.8.4-10.2-.4-10.9-2.5-12-10-14-18l-5-15.9c-2.8-15.1,11.4-18,19.1-17.8l-5.8-69.1-5.2-45.7Z"/>
    <path class="st3" d="M280.4,337.2c0,.2-.1.5-.1.7,0,.5-.2,1.3-.3,2.1,0,.5-.1,1-.2,1.6s-.1,1.2-.2,1.9c-.1,1.3-.3,2.9-.4,4.5-.2,4-.3,7.9,0,11.9.2,4.8.7,9.7,1.4,14.5.8,5.1,1.7,9.9,2.6,14.3s1.9,8.3,2.7,11.5,1.5,5.9,2,7.7c.2.9.4,1.6.6,2.1,0,.2.1.5.2.7,0-.3,0-.5-.1-.7-.1-.5-.3-1.2-.5-2.1-.5-1.9-1.1-4.5-1.9-7.8s-1.7-7.2-2.6-11.6-1.9-9.2-2.6-14.3-1.3-10-1.5-14.4-.2-8.5,0-11.8c0-1.7.2-3.2.3-4.5,0-.7,0-1.3.1-1.9,0-.6.1-1.1.2-1.6.1-.9.2-1.6.2-2.2,0-.2,0-.5,0-.8Z"/>
    <path class="st3" d="M436.2,422.4c0-.5,0-.9-.2-1.4-.3-1.2-.7-2.4-1.3-3.5-3.5-7.7-10.7-13-19.1-13.9-1.2-.2-2.5-.2-3.7-.1-.5,0-.9,0-1.4.2,1.7,0,3.3.1,5,.3,8.2,1.1,15.2,6.3,18.8,13.7.7,1.5,1.3,3.1,1.9,4.7Z"/>
    <path class="st3" d="M428.7,395.8c-.3,0-.5,0-.8,0-.7,0-1.4,0-2.1.1-2.4.2-4.7.8-6.9,1.7-2.2.9-4.2,2.1-6.1,3.6-.6.4-1.1.9-1.6,1.4-.4.4-.5.6-.5.6s.9-.7,2.3-1.8c3.8-2.8,8.2-4.6,12.8-5.3,1.8-.3,2.9-.3,2.9-.4Z"/>
    <path class="st3" d="M395,326.7c0-.5,0-1,0-1.4,0-.9,0-2.2.2-3.9.6-8.5,2.9-16.8,6.9-24.4.8-1.5,1.4-2.6,1.9-3.4.3-.4.5-.8.7-1.3-.3.4-.6.7-.9,1.1-.5.8-1.2,1.9-2,3.3-4.2,7.6-6.5,16-6.9,24.6,0,1.6,0,3,0,3.9,0,.5,0,1,.1,1.4Z"/>
    <path class="st3" d="M332.6,375.1c0,.2,0,.4.1.6.1.4.3.9.5,1.6.7,1.9,1.6,3.7,2.7,5.5,7.2,11.9,20.8,18.4,34.6,16.6,2-.3,4-.7,6-1.3.7-.2,1.2-.4,1.6-.6.2,0,.4-.1.5-.2,0,0-.8.2-2.1.6-2,.6-4,.9-6,1.1-13.6,1.6-26.9-4.8-34.2-16.4-1.1-1.7-2-3.5-2.8-5.4-.5-1.3-.8-2.1-.9-2.1Z"/>
    <path class="st3" d="M401.3,450.2s.6.7,1.8,1.7c1.8,1.3,3.8,2.3,6,2.8,3.2.8,6.5,1.1,9.8.9,3.7-.3,7.8-.7,12.1-1.3,4-.5,8-1.4,11.8-2.7,1.6-.7,3.1-1.7,4.3-2.9,1.1-1,2.1-2.2,3-3.5,1.3-1.8,2.4-3.7,3.3-5.8.3-.7.5-1.3.7-1.7,0-.2.1-.4.3-.6,0,.2,0,.4-.2.6-.1.4-.3,1-.6,1.7-.8,2.1-1.9,4.1-3.2,5.9-.9,1.3-1.9,2.5-3,3.5-1.3,1.3-2.8,2.3-4.4,3-3.9,1.3-7.8,2.3-11.9,2.8-4.3.6-8.4,1.1-12.1,1.3-3.3.2-6.7-.1-9.9-1-2.2-.6-4.2-1.6-6-3-.5-.4-.9-.8-1.3-1.3-.2-.2-.3-.3-.4-.5Z"/>
    <path class="st3" d="M395.9,343.7c.1,0,3.6,13.3,7.7,29.8s7.3,29.9,7.2,29.9-3.6-13.3-7.7-29.8-7.3-29.9-7.2-29.9Z"/>
    <path class="st3" d="M391.7,419c-.1-.4-.2-.7-.2-1.1-.1-1-.1-2,0-3,.1-1.5.6-3,1.5-4.3.5-.8,1-1.5,1.7-2.1.7-.7,1.5-1.2,2.3-1.7,3-1.6,6.2-2.6,9.5-3.1,1-.1,2-.2,3-.3.4,0,.7,0,1.1,0,0,0-1.6.1-4.1.6-3.2.6-6.4,1.6-9.3,3.1-.8.5-1.5,1-2.2,1.6-.6.6-1.1,1.3-1.6,2-.8,1.2-1.3,2.6-1.5,4,0,1-.1,2,0,3,0,.4,0,.8,0,1.1Z"/>
    <g class="st9">
      <path d="M281.9,382c-8.3-14.1-8.5-32.4-1.2-47-2.3,15.6-1.8,31.5,1.5,46.9"/>
    </g>
    <path class="st1" d="M325.9,417.1h0,0Z"/>
    <path class="st1" d="M326.2,417.2h.1c0,0-.1,0-.1,0Z"/>
    <path class="st1" d="M326,417.1h.3c0,.1-.3,0-.3,0Z"/>
    <path class="st1" d="M325.8,417h.1c0,0-.1,0-.1,0Z"/>
    <path class="st1" d="M295.2,445.1c2.6-4.9,23-18,23-18l-5.5-1.3-6.1,2.6c-.5,2.1-1.4,4-2.6,5.7-2.2,3.2-6-.1-6-.1l2.6-12.4,12.1-7.3s11.4,1.7,13.2,2.6l4.8,4.4c2.1,1.7,8.3,8.2,10,8.4s54.4-11.6,54.4-11.6h0c7.2,5.7,11,17.1,12.2,25.3,0,0,1.3,4-.1,6.2l-64.7,5.1-13.7,3.8c-3.7,1.5-7.4,2.8-11.3,3.9-4.6,1-7.6-.5-7.8-3s3.4-2.8,3.4-2.8c3-1.1,6-2.4,8.8-3.9,2.1-1.4,3.8-3.3,5-5.5l-4.9.6s-10.4,7.2-14.3,9.3-4.7-1.8-5-3,11.7-12.9,11.7-12.9c0,0-11.4,7-13.5,8.8s-5.1,2.3-5.7,1.1-2.6-1.2,0-6.2Z"/>
    <path class="st1" d="M326.4,417.3h.1c0,0-.1,0-.1,0Z"/>
    <path class="st1" d="M326.6,417.4"/>
    <path class="st1" d="M326.5,417.4h0,0Z"/>
    <path class="st5" d="M351.4,446.2c0-.3,0-.5,0-.8,0-.3,0-.6,0-.9,0-.4-.1-.8-.2-1.2-.7-2.3-1.8-4.5-3.3-6.4-1.5-1.9-3.2-3.6-5-5.2-.7-.7-1.5-1.3-2.4-1.8.7.7,1.4,1.4,2.1,2.1,1.7,1.6,3.4,3.4,4.8,5.2,1.5,1.8,2.6,3.9,3.4,6.2.5,1.7.5,2.9.6,2.9Z"/>
    <path class="st5" d="M318.7,426.7c2.4.3,4.8-.5,6.5-2.2,0-.1-1.3.8-3.1,1.4s-3.3.6-3.3.8Z"/>
    <path class="st5" d="M315.3,440.3c3.5-1.1,6.9-2.5,10.2-4.2-1.8.5-3.5,1.1-5.2,1.9-1.7.6-3.4,1.4-5,2.3Z"/>
    <path class="st5" d="M326.2,447.2c.9-.2,1.8-.5,2.7-1,.9-.3,1.8-.6,2.6-1.1-1.9.2-3.7.9-5.3,2.1Z"/>
    <path class="st5" d="M317,441.2c.7.5,1.4,1.1,2,1.8.5.8.9,1.6,1.2,2.4,0,0,.1-.3,0-.9-.1-.7-.4-1.3-.8-1.9-.4-.5-1-1-1.6-1.3-.4-.2-.8-.2-.8-.2Z"/>
    <path class="st5" d="M312.2,433.6c0,.1.8.6,1.4,1.6.3.7.5,1.3.7,2,.3-.8.2-1.7-.3-2.3-.7-1.2-1.8-1.5-1.8-1.4Z"/>
    <path class="st5" d="M313.8,420.1c0,0,.2-.2.4-.6.2-.6.2-1.2,0-1.8-.1-.6-.4-1.1-.9-1.6-.3-.3-.6-.5-.6-.4.4.7.8,1.4,1,2.1.1.8.2,1.6.1,2.3Z"/>
    <path class="st3" d="M407.6,451.6c0-.5,0-1,0-1.5,0-.5,0-1.1,0-1.7s0-1.5-.2-2.3c-.4-4.4-1.3-8.8-2.8-13-.8-2.3-1.9-4.5-3.1-6.6-.6-1-1.1-1.9-1.7-2.7-.3-.4-.6-.8-.8-1.2s-.6-.7-.8-1c-2.1-2.6-3.8-4-3.7-4.1.4.3.8.6,1.2.9.5.4.9.8,1.3,1.2.5.5,1,1,1.6,1.7.3.3.6.7.9,1s.6.8.9,1.2c.6.8,1.2,1.8,1.8,2.7,1.2,2.1,2.3,4.4,3.1,6.7,1.5,4.2,2.4,8.6,2.7,13.1,0,.9,0,1.6,0,2.3s0,1.3,0,1.8c0,.5,0,1-.1,1.5Z"/>
    <g class="st9">
      <path d="M429.8,405.4c-6.1-2.5-12.8-3.1-19.2-1.8h0c11.3-.5,21.7,6.2,25.9,16.7.5,1.2,1.4,2.7,2.7,2.5s1.7-1.7,1.7-3c0-6.5-5.1-12.1-11.1-14.6Z"/>
    </g>
    <path class="st7" d="M280,332.6c-.3,0-.6-.2-.9-.3-.5-.2-1.3-.6-2.3-1-2.5-1.2-4.8-2.7-7-4.3-2.2-1.6-4.3-3.4-6.1-5.4-.7-.8-1.3-1.4-1.6-1.9s-.6-.7-.5-.8.9.9,2.4,2.3c1.9,1.9,4,3.6,6.2,5.2,2.2,1.6,4.5,3.1,6.8,4.4,1.9,1,3,1.6,3,1.6Z"/>
    <path class="st7" d="M395.5,336.4c0,0-.2.1-.2.2l-.8.5c-.7.4-1.7,1-3,1.7-3.8,1.9-7.6,3.6-11.6,4.9-5.9,2-12,3.4-18.2,4.4-7.6,1.1-15.2,1.8-22.9,1.9-8.1.2-15.9,0-23-.1-6.3,0-12.5-.6-18.7-1.4-4.2-.6-8.3-1.5-12.3-2.9-1.4-.5-2.5-.9-3.2-1.2l-.8-.4c0,0-.2,0-.3-.1h.3c0,0,.8.4.8.4.7.3,1.8.6,3.2,1.1,4,1.2,8.1,2.1,12.3,2.7,6.2.8,12.4,1.2,18.7,1.3,7,.1,14.8.3,22.9,0,7.6-.1,15.3-.8,22.8-1.9,6.2-.9,12.3-2.3,18.2-4.2,4-1.3,7.9-2.9,11.7-4.7,1.3-.7,2.4-1.2,3-1.6l.8-.4c.3,0,.4-.1.4-.1Z"/>
    <path class="st7" d="M280.4,372c-.4,0-.8-.1-1.2-.3l-3.3-.9c-2.8-.8-6.7-1.9-10.9-3.2s-8.1-2.5-10.9-3.3l-3.3-1.1c-.4-.1-.8-.3-1.2-.5.4,0,.8.1,1.2.3l3.3.9c2.8.8,6.7,1.9,10.9,3.2s8.1,2.5,10.9,3.3l3.3,1.1c.4.1.8.3,1.2.5Z"/>
    <path class="st7" d="M283.3,427.3c0,.1-10-2.7-22.3-6.4s-22.2-6.8-22.1-6.9,10,2.7,22.3,6.4,22.2,6.8,22.1,6.9Z"/>
    <path class="st7" d="M427.8,307.7c-.3.3-.7.6-1.1.9-.7.5-1.8,1.3-3.1,2.1-7.1,4.6-14.6,8.3-22.6,11.1-1.5.5-2.8.9-3.6,1.2-.4.2-.9.3-1.4.3.4-.2.9-.4,1.3-.5l3.6-1.3c3-1.1,7.1-2.9,11.5-5s8.3-4.4,11-6l3.2-2c.4-.3.8-.5,1.2-.7Z"/>
    <path class="st7" d="M447.7,364.5c-.5.3-1.1.6-1.6.8-1,.5-2.6,1.1-4.5,1.8-10.1,3.7-20.8,5.8-31.6,6.3-2.1,0-3.7.1-4.9,0-.6,0-1.2,0-1.8,0,.6,0,1.2-.1,1.8-.1,1.1,0,2.8-.1,4.9-.2,5.4-.3,10.7-1,16-2.1,5.3-1.1,10.4-2.5,15.5-4.2,2-.7,3.5-1.2,4.6-1.6.5-.2,1.1-.4,1.7-.6Z"/>
    <path class="st7" d="M419,455.4c0-.2,0-.4,0-.6,0-.4.1-.9.2-1.6s.2-1.5.4-2.5.3-2.1.3-3.3c0-.6,0-1.3.1-1.9s0-1.4,0-2.1c0-1.5,0-3-.1-4.6-.3-3.5-.8-7-1.6-10.5-.8-3.4-2-6.8-3.3-10.1-.7-1.5-1.3-2.9-2-4.2-.3-.6-.6-1.3-1-1.9l-1-1.7c-.6-1.1-1.3-2-1.8-2.8s-1-1.5-1.5-2.1l-.9-1.3c-.1-.1-.2-.3-.3-.5.1.1.3.3.4.4l1,1.2c.5.6,1.1,1.3,1.5,2,.6.8,1.2,1.7,1.9,2.8l1,1.7c.4.6.7,1.2,1,1.9.7,1.3,1.4,2.7,2,4.2,2.9,6.6,4.6,13.6,5,20.7,0,1.6.1,3.2,0,4.7,0,.7,0,1.4,0,2.1s-.1,1.3-.1,1.9c0,1.2-.3,2.4-.4,3.3s-.3,1.8-.4,2.5-.3,1.1-.4,1.6c0,.2,0,.4,0,.5Z"/>
    <path class="st7" d="M457.6,424.7s0-.8-.3-2.3c-.4-2-1-4-2-5.8-1.4-2.7-3.3-5.1-5.6-7.1-2.8-2.5-6.1-4.4-9.6-5.6-3.6-1.2-7.3-1.8-11-1.9-3.1,0-6.1,0-9.2.4-2.6.2-4.7.5-6.2.7l-1.7.2c-.2,0-.4,0-.6,0,.2,0,.4-.1.6-.1l1.7-.3c1.5-.2,3.6-.5,6.2-.8,3.1-.4,6.2-.5,9.2-.5,3.8,0,7.6.7,11.2,1.9,3.6,1.3,6.9,3.2,9.8,5.8,2.3,2.1,4.3,4.5,5.7,7.3.9,1.9,1.6,3.9,1.8,6,0,.6.1,1.1.1,1.7,0,.2,0,.4,0,.5Z"/>
    <path class="st7" d="M350,395.8c-.2,0-.4,0-.6.1l-1.6.2-6,.5c-5.1.4-12.1.9-19.8,1.3s-14.8.6-19.9.7h-7.6c-.2,0-.4,0-.6,0,.2,0,.4,0,.6,0h7.6c5.1-.3,12.1-.6,19.8-1l19.8-1.1,6-.3h1.6c.2-.1.4-.2.6-.2Z"/>
    <g class="st9">
      <path d="M355.8,397.9c6.3,1.9,15,2.3,21.2,0-4.8,6.8-14.1,9.3-22.1,7.1s-15.5-10.3-16.1-18.6c3.9,5.3,10.7,9.7,17,11.5Z"/>
    </g>
    <path class="st7" d="M406.9,391.3c-.2,0-.3.1-.5.1l-1.5.3c-1.3.3-3.1.6-5.4,1-4.5.8-10.9,1.8-17.9,2.6s-13.4,1.4-18,1.7c-2.3.2-4.2.3-5.5.3h-1.5c-.2,0-.3,0-.5,0,.2,0,.3,0,.5,0h1.5c0-.1,5.4-.6,5.4-.6,4.6-.4,10.9-1,17.9-1.9s13.3-1.8,17.9-2.5l5.4-.8,1.5-.2c.2,0,.4,0,.5,0Z"/>
    <g class="st9">
      <path d="M396.4,346.8c-1.6,18.1,3.4,36.1,8.2,53.6.2,1.1.7,2.1,1.3,3,.7.9,1.9,1.2,3,.8,1.5-.8,1.3-3,.9-4.6l-13.6-52"/>
    </g>
    <path class="st0" d="M143.2,364.8l20.6,100.9h178.4c2,0,3.6-1.6,3.6-3.6h0c0-2-1.6-3.6-3.6-3.6h-35.9l-19-93.8c-.4-1.8-1.9-3.1-3.8-3.1l-136.3-1.5c-2.1,0-3.9,1.7-3.9,3.8,0,.3,0,.6,0,.8Z"/>
    <path class="st3" d="M143.2,364.8c0,0,0-.2,0-.3,0-.3,0-.6,0-.9.1-1.2.8-2.3,1.9-3,.4-.2.8-.4,1.2-.5.5,0,.9-.1,1.4,0h11.2c0,0,51.6.6,51.6.6l35.9.4,20.1.2h10.6c0,.1,5.4.2,5.4.2h1.4c.5,0,.9.2,1.4.4.9.4,1.6,1.1,2,2,.2.4.3.9.4,1.4l.3,1.4c.2.9.4,1.8.5,2.7.4,1.8.8,3.7,1.1,5.5l2.3,11.2c1.5,7.6,3.1,15.3,4.7,23.2,3.2,15.8,6.6,32.3,10,49.2l-.2-.2h35.3c.5,0,.9,0,1.4,0,1,.2,1.8.8,2.3,1.7,1.2,1.7.8,4.1-1,5.3-.1,0-.2.1-.3.2-.5.3-1.1.4-1.7.5h-178.7c-6.3-31.1-11.4-56.4-14.9-73.9-1.8-8.7-3.1-15.5-4.1-20.2-.5-2.3-.8-4.1-1-5.3s-.3-1.8-.3-1.8c0,0,.1.6.4,1.8l1.1,5.2c.9,4.6,2.4,11.4,4.1,20.1l15.1,73.7-.2-.2h178.5c.5,0,1-.2,1.5-.4,1.6-.9,2.2-2.9,1.3-4.5,0,0-.1-.2-.2-.3-.5-.7-1.2-1.2-2-1.4-.4,0-.9,0-1.3,0h-35.6v-.2c-3.4-17-6.8-33.4-10-49.2-1.6-7.9-3.2-15.6-4.7-23.2l-2.3-11.4c-.4-1.9-.7-3.7-1.1-5.5-.2-.9-.4-1.8-.6-2.7l-.3-1.4c0-.4-.2-.9-.4-1.3-.3-.8-.9-1.4-1.7-1.8-.4-.2-.8-.3-1.2-.4h-6.7c0,0-10.6-.2-10.6-.2l-20.1-.2-35.9-.4-51.6-.6h-8c0-.1-3.2-.2-3.2-.2-.5,0-.9,0-1.4,0-.4,0-.8.2-1.1.5-1,.6-1.7,1.7-1.9,2.9,0,.4,0,.8,0,1.2Z"/>
    <path class="st7" d="M225.4,411c0,3.3-2.6,5.9-5.9,5.9s-5.9-2.6-5.9-5.9c0-3.3,2.6-5.9,5.9-5.9s5.9,2.6,5.9,5.9h0Z"/>
    <path class="st3" d="M143.4,365.6h34.9c0,.1,84.1.7,84.1.7h12.2c0,.1,3,.1,3,.1.5,0,1,0,1.5,0,.5.1,1,.3,1.4.6.9.6,1.5,1.4,1.8,2.5.2,1,.4,1.9.6,2.9,1.5,7.6,3,14.9,4.4,21.9,2.8,14,5.2,26.5,7.3,37.1l4.9,25c.6,3,1,5.2,1.3,6.8.1.8.2,1.4.3,1.8s0,.6,0,.6c0,0,0-.2-.1-.6s-.2-1-.4-1.8c-.3-1.6-.8-3.9-1.4-6.8-1.2-5.9-2.9-14.5-5.1-25l-7.4-37.1c-1.4-7-2.9-14.3-4.4-21.9-.2-.9-.4-1.9-.6-2.8-.2-.9-.8-1.7-1.6-2.2-.4-.2-.8-.4-1.3-.5-.5,0-1-.1-1.4,0h-15.2c0,0-84.2-.8-84.2-.8l-25.5-.3h-6.9c0-.1-1.8-.1-1.8-.1h-.6Z"/>
    <path class="st3" d="M381.6,212.4c.4,18.9-7.3,37-21.1,49.9-3.2-9.1-6.3-18.2-9.4-27.3"/>
    <path class="st3" d="M310.6,158.1c8.1-4.4,17.9-5.1,26.9-3.2s17.5,5.9,25.4,10.5c4.5,2.6,8.9,5.4,12.2,9.5,5.9,7.4,11.7,19.5,12.2,29,.5,7.6-2.5,26.7-5.7,33.6-3,6.4-16.8,11.2-23.6,12.8l-62.6-72.9c2.3-8.2,7.8-15.1,15.2-19.2Z"/>
    <path class="st3" d="M299.8,167.9l15-2.7c-8.2,19.6-10.4,64.2-15.1,84.9-5.5-8-18.4-32.5-17.7-42.2s0-41.7,17.8-40Z"/>
    <path class="st4" d="M371,200.4c-.8-11.4-8.2-20.8-19.3-23.6l-34.6-8.8c-14.9-1.6-24.9,16.8-25.9,31.8-1.1,16.7-1.8,34.2.2,46.7,3.9,25,23.1,28.2,23.1,28.2v19.2l11.6,47.9,37.3-51.5,7.7-89.5c0-.4,0,.2,0-.3Z"/>
    <path class="st3" d="M298.7,218.7c0,1.7,1.4,3.2,3.1,3.2,1.7.1,3.2-1.1,3.3-2.8,0,0,0,0,0,0,0-1.7-1.3-3.2-3.1-3.2-1.7-.1-3.2,1.1-3.3,2.8,0,0,0,0,0,0Z"/>
    <path class="st3" d="M295,209.6c.4.4,2.8-1.4,6.3-1.4s6,1.8,6.4,1.3c.2-.2-.2-.9-1.3-1.8-1.5-1-3.3-1.6-5.1-1.6-1.8,0-3.5.6-5,1.6-1.1.8-1.5,1.6-1.2,1.8Z"/>
    <path class="st3" d="M328.8,218.7c0,1.7,1.4,3.2,3.1,3.2,1.7.1,3.2-1.1,3.3-2.8,0,0,0,0,0-.1,0-1.7-1.3-3.2-3.1-3.2-1.7-.1-3.2,1.1-3.3,2.8,0,0,0,0,0,0Z"/>
    <path class="st3" d="M327.7,209.6c.4.4,2.8-1.4,6.3-1.4s6,1.8,6.4,1.3c.2-.2-.2-.9-1.3-1.8-1.5-1-3.2-1.6-5.1-1.6-1.8,0-3.5.6-5,1.6-1.1.8-1.5,1.6-1.3,1.8Z"/>
    <path class="st3" d="M317,236.7c0-.2-2.1-.6-5.6-1-.9,0-1.7-.3-1.9-.9,0-.9.1-1.8.6-2.6.8-2.1,1.7-4.4,2.6-6.7,3.6-9.5,6.3-17.4,5.9-17.5s-3.6,7.5-7.3,17c-.9,2.3-1.7,4.6-2.5,6.7-.6,1.1-.7,2.3-.5,3.5.3.6.8,1.1,1.5,1.3.5.1,1,.2,1.5.2,3.4.2,5.6.2,5.7,0Z"/>
    <path class="st6" d="M347.6,265.8s-8.1,17.2-33.2,14.8v-5.9c11.7.2,23.1-2.9,33.2-8.9Z"/>
    <path class="st3" d="M328.8,197.1c.3.9,3.8.5,7.8,1s7.3,1.6,7.9.8c.2-.4-.3-1.3-1.6-2.2-1.8-1.1-3.7-1.8-5.8-2-2.1-.3-4.2,0-6.1.7-1.5.6-2.2,1.3-2.1,1.7Z"/>
    <path class="st3" d="M296.1,199c.6.8,3,0,5.8,0s5.3.5,5.8-.3c.2-.4-.1-1.2-1.2-1.9-2.9-1.8-6.6-1.7-9.4.3-1,.8-1.3,1.6-1.1,2Z"/>
    <path class="st3" d="M298,176.9c1.5-3.8,5.7-6,9.7-6.2s8,1.3,11.5,3.4c14.9,8.6,22.5,29.4,37.3,38.3,3.6,2.2,8.3.2,11.4,3.1s5.1,7.5,3.4,11.4c2.1-2.6,3.8-5.5,5.1-8.6,1.1-3.2,1.3-6.8-.4-9.8-1.3-2.2-3.5-3.9-4.1-6.4-.5-2.2.3-4.4.2-6.7-.3-2.3-1-4.5-2.3-6.4-5.8-10.2-13.7-19.4-23.9-25.1-6.7-3.8-14.3-5.8-22-5.7-7.7.2-15.2,3.1-20.9,8.3-3.3,3.1-6.8,6.2-5,10.4"/>
    <path class="st4" d="M367.6,218.6c.3-.7,13.3-5.4,13.5,8.4.2,13.5-13.4,10.8-13.5,10.4s0-18.9,0-18.9Z"/>
    <path class="st6" d="M371.7,232.3c0,0,.2.2.6.3.6.2,1.2.2,1.8,0,1.4-.5,2.6-2.8,2.6-5.2,0-1.2-.2-2.3-.7-3.4-.3-.9-.9-1.5-1.8-1.8-.6-.1-1.1.1-1.4.6-.2.4,0,.6-.2.7s-.3-.2-.2-.8c0-.3.3-.6.5-.8.4-.3.8-.4,1.3-.4,1.1.2,2.1,1,2.5,2.1.6,1.2.9,2.4.9,3.7,0,2.7-1.4,5.3-3.4,5.9-.7.2-1.5,0-2.1-.3-.4-.3-.5-.6-.5-.6Z"/>
    <path class="st11" d="M372.9,211.6c-.3-.1-.6-.3-.8-.4-.5-.3-1.3-.8-2.3-1.4-2.7-1.9-5.1-4.2-7.3-6.6-3.2-3.7-6.1-7.5-8.9-11.6-3.3-4.9-7-9.5-11.1-13.8-2.2-2.1-4.6-4-7.2-5.7-2.4-1.5-5-2.7-7.7-3.5-4.6-1.5-9.4-2.1-14.3-1.8-3.3.2-6.5.8-9.6,1.9-1.1.3-1.9.7-2.5.9-.3.1-.6.2-.9.3.3-.2.5-.3.8-.4.8-.4,1.6-.7,2.5-1,3.1-1.1,6.3-1.8,9.6-2.1,4.9-.4,9.8.1,14.5,1.6,2.8.9,5.4,2,7.9,3.5,2.6,1.6,5.1,3.6,7.3,5.8,4.1,4.3,7.8,9,11.1,14,2.7,4,5.6,7.9,8.8,11.6,2.1,2.5,4.5,4.7,7.1,6.7.9.7,1.7,1.2,2.2,1.5.3.1.5.3.7.5Z"/>
    <path class="st7" d="M373.2,234.7c1.4-.3,2.8.7,3.1,2.1.3,1.4-.7,2.8-2.1,3.1-1.4.3-2.8-.7-3.1-2.1-.2-1.2.4-2.4,1.5-2.9"/>
    <path class="st3" d="M372.6,234.9c-.6.5-1,1.1-1.2,1.8-.2.7,0,1.5.5,2.1.8,1,2.3,1.1,3.3.3.5-.4.8-1,.8-1.6,0-.8-.2-1.5-.8-2-.6-.5-1.3-.7-2-.8,0,0,.2-.1.6-.1.6,0,1.2.2,1.7.6.8.6,1.2,1.5,1.1,2.4-.1,1.6-1.5,2.8-3.1,2.7-.8,0-1.6-.4-2.1-1.1-.6-.7-.8-1.7-.5-2.6.2-.6.5-1.1,1-1.4.4-.3.6-.3.6-.3Z"/>
    <path class="st3" d="M369.5,215.4c.2,3.7.4,7.6-1.3,10.8s-6,5.5-9.2,3.7c-2.6-1.5-3.4-4.8-3.8-7.8-1.3-8.6-1.9-17.2-3.2-25.8l17.5,19.1Z"/>
    <path class="st11" d="M301.3,170.5c0,0,1.2-.2,3.3-.3,3.1,0,6.1.5,8.9,1.6,2,.8,3.8,1.7,5.6,2.9,2,1.3,3.9,2.8,5.8,4.4,4.2,3.6,8,7.7,11.3,12.2,1.7,2.4,3.2,4.9,4.9,7.2,1.6,2.2,3.4,4.3,5.4,6.1,3.5,3,7.3,5.5,11.4,7.6,3.5,1.8,6.3,3.1,8.3,4l2.3,1c.3.1.5.2.8.3-.2-.2-.5-.3-.8-.4l-2.2-1.1c-2-1-4.8-2.3-8.2-4.2-4-2.2-7.7-4.7-11.2-7.7-2-1.8-3.7-3.8-5.3-6-1.6-2.3-3.1-4.7-4.9-7.2-3.3-4.5-7.1-8.7-11.4-12.2-1.9-1.6-3.8-3.1-5.9-4.4-1.8-1.2-3.7-2.1-5.7-2.9-2.9-1.1-6-1.6-9.1-1.4-.8,0-1.7.2-2.5.4-.3,0-.6.1-.8.2Z"/>
    <path class="st11" d="M369.9,207.1c.4.3.8.6,1.2.8l3.4,2,1.1.6c.5.3,1,.4,1.5.5.3,0,.6,0,.9-.2.3-.2.5-.5.5-.9,0-.6-.2-1.2-.6-1.7l-4-6.3-.5.5c2.6,1.9,5.9,2.9,9.1,2.7.4,0,.8,0,1.2-.2.4-.1.8-.5,1-.9.2-.5,0-1-.2-1.4-.2-.3-.5-.6-.8-.8-1.8-1.7-3.3-3.7-4.6-5.8-1.1-2-2.1-4.1-2.9-6.2,0,.6.2,1.2.4,1.8.5,1.6,1.2,3.2,2,4.7,1.2,2.2,2.8,4.2,4.6,6,.5.5,1,1,.8,1.4s-.9.6-1.6.6c-1.5,0-3.1-.1-4.6-.6-1.5-.4-2.9-1.1-4.1-2l-1.6-1.2,1.1,1.7,4,6.3c.3.4.5.8.6,1.3,0,.4-.3.6-.8.6-.9-.2-1.7-.5-2.4-1l-3.5-1.8c-.4-.2-.8-.4-1.2-.6Z"/>
    <path class="st6" d="M330.1,243c-.5-2.1-2.5-3.6-4.6-3.4-1.6.2-2.9,1.2-3.6,2.6-.7,1.4-.8,3-.2,4.5v.3c1.6,1.6,3.9,2.1,5.8,1.2,2-.9,3-3.1,2.6-5.2Z"/>
    <path class="st3" d="M319.2,247.1c0-.5,3.5-.4,6.1-3.2s2.4-6.6,2.9-6.6.6.9.6,2.4c0,2-.9,4-2.2,5.5-1.3,1.5-3.2,2.3-5.1,2.5-1.4,0-2.3-.4-2.3-.6Z"/>
    <path class="st7" d="M436.7,459c0,0-.2,0-.2,0h-.7c0,0-2.7.3-2.7.3-2.3.2-5.7.4-9.8.7-8.3.5-19.8,1-32.5,1.2s-24.2,0-32.5-.1c-4.2-.1-7.5-.2-9.9-.3h-2.7c0-.1-.7-.1-.7-.1h-.2,3.6l9.9.2c8.3.1,19.8.2,32.5,0s24.2-.7,32.5-1.1l9.9-.5h2.7c0-.1.7-.1.7-.1h.2Z"/>
  </g>
</svg>